<?xml version="1.0" encoding="UTF-8" standalone="no"?>
<!DOCTYPE svg PUBLIC "-//W3C//DTD SVG 1.1//EN"
 "http://www.w3.org/Graphics/SVG/1.1/DTD/svg11.dtd">
<!-- Generated by graphviz version 2.26.0 (20091210.2329)
 -->
<!-- Title: _anonymous_0 Pages: 1 -->
<svg width="3132pt" height="1176pt"
 viewBox="0.00 0.00 3132.00 1176.00" xmlns="http://www.w3.org/2000/svg" xmlns:xlink="http://www.w3.org/1999/xlink">
<g id="graph1" class="graph" transform="scale(1 1) rotate(0) translate(4 1172)">
<title>_anonymous_0</title>
<polygon fill="white" stroke="white" points="-4,5 -4,-1172 3129,-1172 3129,5 -4,5"/>
<g id="graph2" class="cluster"><title>cluster&#45;nid&#45;0a&#45;in</title>
<polygon fill="none" stroke="#cccccc" points="1826,-740 1826,-840 2002,-840 2002,-740 1826,-740"/>
</g>
<g id="graph5" class="cluster"><title>cluster&#45;nid&#45;0b&#45;out</title>
<polygon fill="none" stroke="#cccccc" points="16,-216 16,-316 174,-316 174,-216 16,-216"/>
</g>
<g id="graph7" class="cluster"><title>cluster&#45;nid&#45;0c&#45;out</title>
<polygon fill="none" stroke="#cccccc" points="8,-108 8,-208 182,-208 182,-108 8,-108"/>
</g>
<g id="graph8" class="cluster"><title>cluster&#45;nid&#45;0d&#45;in</title>
<polygon fill="none" stroke="#cccccc" points="1822,-964 1822,-1064 2006,-1064 2006,-964 1822,-964"/>
</g>
<g id="graph11" class="cluster"><title>cluster&#45;nid&#45;0e&#45;out</title>
<polygon fill="none" stroke="#cccccc" points="8,-324 8,-424 182,-424 182,-324 8,-324"/>
</g>
<g id="graph12" class="cluster"><title>cluster&#45;nid&#45;0f&#45;in</title>
<polygon fill="none" stroke="#cccccc" points="1820,-632 1820,-732 2008,-732 2008,-632 1820,-632"/>
</g>
<g id="graph14" class="cluster"><title>cluster&#45;nid&#45;10</title>
<polygon fill="none" stroke="#cccccc" points="382,-778 382,-858 822,-858 822,-778 382,-778"/>
</g>
<g id="graph15" class="cluster"><title>cluster&#45;nid&#45;11</title>
<polygon fill="none" stroke="#cccccc" points="382,-956 382,-1036 822,-1036 822,-956 382,-956"/>
</g>
<g id="graph16" class="cluster"><title>cluster&#45;nid&#45;12</title>
<polygon fill="none" stroke="#cccccc" points="2591,-226 2591,-306 2679,-306 2679,-226 2591,-226"/>
</g>
<g id="graph17" class="cluster"><title>cluster&#45;nid&#45;13</title>
<polygon fill="none" stroke="#cccccc" points="2591,-22 2591,-102 2679,-102 2679,-22 2591,-22"/>
</g>
<g id="graph18" class="cluster"><title>cluster&#45;nid&#45;14&#45;in</title>
<polygon fill="none" stroke="#cccccc" points="2554,-852 2554,-952 2716,-952 2716,-852 2554,-852"/>
</g>
<g id="graph20" class="cluster"><title>cluster&#45;nid&#45;15</title>
<polygon fill="none" stroke="#cccccc" points="1853,-848 1853,-956 1975,-956 1975,-848 1853,-848"/>
</g>
<g id="graph21" class="cluster"><title>cluster&#45;nid&#45;16</title>
<polygon fill="none" stroke="#cccccc" points="2232,-857 2232,-947 2330,-947 2330,-857 2232,-857"/>
</g>
<g id="graph22" class="cluster"><title>cluster&#45;nid&#45;17</title>
<polygon fill="none" stroke="#cccccc" points="1068,-273 1068,-741 1591,-741 1591,-273 1068,-273"/>
</g>
<g id="graph23" class="cluster"><title>cluster&#45;nid&#45;18&#45;in</title>
<polygon fill="none" stroke="#cccccc" points="39,-1044 39,-1098 479,-1098 479,-1044 39,-1044"/>
</g>
<g id="graph24" class="cluster"><title>cluster&#45;nid&#45;18&#45;out</title>
<polygon fill="none" stroke="#cccccc" points="1462,-133 1462,-233 1620,-233 1620,-133 1462,-133"/>
</g>
<g id="graph25" class="cluster"><title>cluster&#45;nid&#45;19&#45;in</title>
<polygon fill="none" stroke="#cccccc" points="39,-1106 39,-1160 479,-1160 479,-1106 39,-1106"/>
</g>
<g id="graph26" class="cluster"><title>cluster&#45;nid&#45;19&#45;out</title>
<polygon fill="none" stroke="#cccccc" points="1462,-25 1462,-125 1620,-125 1620,-25 1462,-25"/>
</g>
<g id="graph27" class="cluster"><title>cluster&#45;nid&#45;1a</title>
<polygon fill="none" stroke="#cccccc" points="383,-270 383,-378 822,-378 822,-270 383,-270"/>
</g>
<g id="graph28" class="cluster"><title>cluster&#45;nid&#45;1b</title>
<polygon fill="none" stroke="#cccccc" points="383,-154 383,-262 822,-262 822,-154 383,-154"/>
</g>
<g id="graph29" class="cluster"><title>cluster&#45;nid&#45;1c</title>
<polygon fill="none" stroke="#cccccc" points="1827,-212 1827,-320 2316,-320 2316,-212 1827,-212"/>
</g>
<g id="graph30" class="cluster"><title>cluster&#45;nid&#45;1d</title>
<polygon fill="none" stroke="#cccccc" points="1827,-8 1827,-116 2316,-116 2316,-8 1827,-8"/>
</g>
<g id="graph31" class="cluster"><title>cluster&#45;nid&#45;1e&#45;in</title>
<polygon fill="none" stroke="#cccccc" points="2916,-324 2916,-424 3116,-424 3116,-324 2916,-324"/>
</g>
<g id="graph33" class="cluster"><title>cluster&#45;nid&#45;1f&#45;in</title>
<polygon fill="none" stroke="#cccccc" points="2935,-216 2935,-316 3097,-316 3097,-216 2935,-216"/>
</g>
<g id="graph35" class="cluster"><title>cluster&#45;nid&#45;20&#45;in</title>
<polygon fill="none" stroke="#cccccc" points="2935,-108 2935,-208 3097,-208 3097,-108 2935,-108"/>
</g>
<g id="graph37" class="cluster"><title>cluster&#45;nid&#45;21</title>
<polygon fill="none" stroke="#cccccc" points="2208,-328 2208,-408 2354,-408 2354,-328 2208,-328"/>
</g>
<g id="graph38" class="cluster"><title>cluster&#45;nid&#45;22</title>
<polygon fill="none" stroke="#cccccc" points="2208,-124 2208,-204 2354,-204 2354,-124 2208,-124"/>
</g>
<g id="graph40" class="cluster"><title>cluster&#45;nid&#45;24</title>
<polygon fill="none" stroke="#cccccc" points="2574,-314 2574,-422 2696,-422 2696,-314 2574,-314"/>
</g>
<g id="graph41" class="cluster"><title>cluster&#45;nid&#45;25</title>
<polygon fill="none" stroke="#cccccc" points="2574,-110 2574,-218 2696,-218 2696,-110 2574,-110"/>
</g>
<g id="graph44" class="cluster"><title>cluster&#45;nid&#45;27&#45;out</title>
<polygon fill="none" stroke="#cccccc" points="706,-457 706,-557 868,-557 868,-457 706,-457"/>
</g>
<g id="graph45" class="cluster"><title>cluster&#45;nid&#45;28</title>
<polygon fill="none" stroke="#cccccc" points="1130,-895 1130,-957 1200,-957 1200,-895 1130,-895"/>
</g>
<!-- nid&#45;0a&#45;in -->
<g id="node2" class="node"><title>nid&#45;0a&#45;in</title>
<polygon fill="none" stroke="green" points="1994,-832 1834,-832 1834,-748 1994,-748 1994,-832"/>
<text text-anchor="middle" x="1914" y="-815.4" font-family="Times Roman,serif" font-size="14.00">0x0a</text>
<text text-anchor="middle" x="1914" y="-796.4" font-family="Times Roman,serif" font-size="14.00">[Jack] HP Out at Ext Rear</text>
<text text-anchor="middle" x="1914" y="-777.4" font-family="Times Roman,serif" font-size="14.00">Stereo</text>
<text text-anchor="middle" x="1914" y="-758.4" font-family="Times Roman,serif" font-size="14.00">OUT HP Detect</text>
</g>
<!-- nid&#45;10&#45;ampout -->
<g id="node4" class="node"><title>nid&#45;10&#45;ampout</title>
<polygon fill="none" stroke="#c8c8c8" points="814,-818 773.5,-836 773.5,-800 814,-818"/>
</g>
<!-- nid&#45;10&#45;ampout&#45;&gt;nid&#45;0a&#45;in -->
<g id="edge4" class="edge"><title>nid&#45;10&#45;ampout&#45;&gt;nid&#45;0a&#45;in</title>
<path fill="none" stroke="gray" stroke-dasharray="5,2" d="M812.656,-817.363C948.4,-813.99 1585.59,-798.159 1823.82,-792.24"/>
<polygon fill="gray" stroke="gray" points="1823.93,-795.739 1833.84,-791.992 1823.76,-788.741 1823.93,-795.739"/>
</g>
<!-- nid&#45;0d&#45;in -->
<g id="node17" class="node"><title>nid&#45;0d&#45;in</title>
<polygon fill="none" stroke="green" points="1997,-1056 1831,-1056 1831,-972 1997,-972 1997,-1056"/>
<text text-anchor="middle" x="1914" y="-1039.4" font-family="Times Roman,serif" font-size="14.00">0x0d</text>
<text text-anchor="middle" x="1914" y="-1020.4" font-family="Times Roman,serif" font-size="14.00">[Jack] Line Out at Ext Rear</text>
<text text-anchor="middle" x="1914" y="-1001.4" font-family="Times Roman,serif" font-size="14.00">Stereo</text>
<text text-anchor="middle" x="1914" y="-982.4" font-family="Times Roman,serif" font-size="14.00">OUT Detect</text>
</g>
<!-- nid&#45;10&#45;ampout&#45;&gt;nid&#45;0d&#45;in -->
<g id="edge16" class="edge"><title>nid&#45;10&#45;ampout&#45;&gt;nid&#45;0d&#45;in</title>
<path fill="none" stroke="#333333" d="M807.519,-820.989C872.832,-830.55 1081.72,-861.488 1254,-891 1456.18,-925.633 1692.28,-970.776 1820.13,-995.613"/>
<polygon fill="#333333" stroke="#333333" points="1819.79,-999.112 1830.27,-997.585 1821.12,-992.241 1819.79,-999.112"/>
</g>
<!-- nid&#45;0f&#45;in -->
<g id="node26" class="node"><title>nid&#45;0f&#45;in</title>
<polygon fill="none" stroke="green" points="2000,-724 1828,-724 1828,-640 2000,-640 2000,-724"/>
<text text-anchor="middle" x="1914" y="-707.4" font-family="Times Roman,serif" font-size="14.00">0x0f</text>
<text text-anchor="middle" x="1914" y="-688.4" font-family="Times Roman,serif" font-size="14.00">[Jack] Line Out at Ext Right</text>
<text text-anchor="middle" x="1914" y="-669.4" font-family="Times Roman,serif" font-size="14.00">Stereo</text>
<text text-anchor="middle" x="1914" y="-650.4" font-family="Times Roman,serif" font-size="14.00">OUT Detect</text>
</g>
<!-- nid&#45;10&#45;ampout&#45;&gt;nid&#45;0f&#45;in -->
<g id="edge26" class="edge"><title>nid&#45;10&#45;ampout&#45;&gt;nid&#45;0f&#45;in</title>
<path fill="none" stroke="#333333" d="M811.663,-816.955C912.451,-812.449 1302.74,-792.707 1620,-745 1686.61,-734.984 1760.76,-719.059 1817.93,-705.727"/>
<polygon fill="#333333" stroke="#333333" points="1818.75,-709.132 1827.68,-703.441 1817.15,-702.317 1818.75,-709.132"/>
</g>
<!-- nid&#45;15 -->
<g id="node51" class="node"><title>nid&#45;15</title>
<polygon fill="none" stroke="black" points="1966.87,-948 1882.76,-948 1861.13,-856 1945.24,-856 1966.87,-948"/>
<text text-anchor="middle" x="1914" y="-908.4" font-family="Times Roman,serif" font-size="14.00">0x15</text>
<text text-anchor="middle" x="1914" y="-889.4" font-family="Times Roman,serif" font-size="14.00">Stereo</text>
</g>
<!-- nid&#45;10&#45;ampout&#45;&gt;nid&#45;15 -->
<g id="edge49" class="edge"><title>nid&#45;10&#45;ampout&#45;&gt;nid&#45;15</title>
<path fill="none" stroke="#333333" d="M810.28,-819.735C948.287,-830.021 1659.87,-883.059 1860.99,-898.049"/>
<polygon fill="#333333" stroke="#333333" points="1860.78,-901.543 1871.02,-898.796 1861.3,-894.563 1860.78,-901.543"/>
</g>
<!-- nid&#45;17&#45;ampin&#45;16 -->
<g id="node58" class="node"><title>nid&#45;17&#45;ampin&#45;16</title>
<polygon fill="none" stroke="#c8c8c8" points="1254.1,-601 1120.45,-639.184 1120.45,-562.816 1254.1,-601"/>
<text text-anchor="middle" x="1165" y="-597.9" font-family="Times Roman,serif" font-size="14.00">0 (0x10)</text>
</g>
<!-- nid&#45;10&#45;ampout&#45;&gt;nid&#45;17&#45;ampin&#45;16 -->
<g id="edge69" class="edge"><title>nid&#45;10&#45;ampout&#45;&gt;nid&#45;17&#45;ampin&#45;16</title>
<path fill="none" stroke="#333333" d="M798.025,-810.818C835.296,-786.651 960.28,-706.518 1068,-648 1081.76,-640.526 1096.89,-632.917 1111.02,-626.059"/>
<polygon fill="#333333" stroke="#333333" points="1112.64,-629.161 1120.13,-621.67 1109.61,-622.854 1112.64,-629.161"/>
</g>
<!-- nid&#45;28 -->
<g id="node146" class="node"><title>nid&#45;28</title>
<polygon fill="none" stroke="black" points="1192,-949 1138,-949 1138,-903 1192,-903 1192,-949"/>
<text text-anchor="middle" x="1165" y="-932.4" font-family="Times Roman,serif" font-size="14.00">0x28</text>
<text text-anchor="middle" x="1165" y="-913.4" font-family="Times Roman,serif" font-size="14.00">Mono</text>
</g>
<!-- nid&#45;10&#45;ampout&#45;&gt;nid&#45;28 -->
<g id="edge162" class="edge"><title>nid&#45;10&#45;ampout&#45;&gt;nid&#45;28</title>
<path fill="none" stroke="gray" stroke-dasharray="5,2" d="M803.73,-822.78C860.73,-839.066 1048.24,-892.639 1128.27,-915.505"/>
<polygon fill="gray" stroke="gray" points="1127.35,-918.883 1137.93,-918.265 1129.28,-912.153 1127.35,-918.883"/>
</g>
<!-- nid&#45;11&#45;ampout -->
<g id="node6" class="node"><title>nid&#45;11&#45;ampout</title>
<polygon fill="none" stroke="#c8c8c8" points="814,-996 773.5,-1014 773.5,-978 814,-996"/>
</g>
<!-- nid&#45;11&#45;ampout&#45;&gt;nid&#45;0a&#45;in -->
<g id="edge6" class="edge"><title>nid&#45;11&#45;ampout&#45;&gt;nid&#45;0a&#45;in</title>
<path fill="none" stroke="#333333" d="M809.544,-998.01C877.308,-1003.57 1084.92,-1017.1 1254,-991 1463.69,-958.63 1699.19,-874.822 1824.38,-826.258"/>
<polygon fill="#333333" stroke="#333333" points="1825.89,-829.426 1833.94,-822.536 1823.35,-822.903 1825.89,-829.426"/>
</g>
<!-- nid&#45;11&#45;ampout&#45;&gt;nid&#45;0d&#45;in -->
<g id="edge18" class="edge"><title>nid&#45;11&#45;ampout&#45;&gt;nid&#45;0d&#45;in</title>
<path fill="none" stroke="gray" stroke-dasharray="5,2" d="M802.279,-1001.29C844.128,-1015.47 964.389,-1054.11 1068,-1067 1311.46,-1097.28 1375.64,-1088.85 1620,-1067 1687.63,-1060.95 1762.99,-1047.23 1820.47,-1035.26"/>
<polygon fill="gray" stroke="gray" points="1821.2,-1038.68 1830.26,-1033.2 1819.76,-1031.83 1821.2,-1038.68"/>
</g>
<!-- nid&#45;11&#45;ampout&#45;&gt;nid&#45;0f&#45;in -->
<g id="edge28" class="edge"><title>nid&#45;11&#45;ampout&#45;&gt;nid&#45;0f&#45;in</title>
<path fill="none" stroke="gray" stroke-dasharray="5,2" d="M811.995,-996.942C882.585,-999.005 1089.04,-1000.91 1254,-961 1469.87,-908.774 1705.64,-793.699 1828.57,-728.836"/>
<polygon fill="gray" stroke="gray" points="1830.38,-731.835 1837.58,-724.062 1827.11,-725.649 1830.38,-731.835"/>
</g>
<!-- nid&#45;11&#45;ampout&#45;&gt;nid&#45;15 -->
<g id="edge51" class="edge"><title>nid&#45;11&#45;ampout&#45;&gt;nid&#45;15</title>
<path fill="none" stroke="gray" stroke-dasharray="5,2" d="M807.032,-999.169C853.003,-1006.26 969.683,-1023.25 1068,-1029 1314.66,-1043.43 1377.44,-1010.03 1620,-963 1705.69,-946.387 1805.07,-925.409 1863.56,-912.884"/>
<polygon fill="gray" stroke="gray" points="1864.6,-916.241 1873.64,-910.722 1863.13,-909.396 1864.6,-916.241"/>
</g>
<!-- nid&#45;17&#45;ampin&#45;17 -->
<g id="node60" class="node"><title>nid&#45;17&#45;ampin&#45;17</title>
<polygon fill="none" stroke="#c8c8c8" points="1254.1,-695 1120.45,-733.184 1120.45,-656.816 1254.1,-695"/>
<text text-anchor="middle" x="1165" y="-691.9" font-family="Times Roman,serif" font-size="14.00">1 (0x11)</text>
</g>
<!-- nid&#45;11&#45;ampout&#45;&gt;nid&#45;17&#45;ampin&#45;17 -->
<g id="edge71" class="edge"><title>nid&#45;11&#45;ampout&#45;&gt;nid&#45;17&#45;ampin&#45;17</title>
<path fill="none" stroke="#333333" d="M796.724,-988.257C840.527,-953.377 1021.33,-809.404 1112.27,-736.991"/>
<polygon fill="#333333" stroke="#333333" points="1114.61,-739.602 1120.25,-730.635 1110.25,-734.126 1114.61,-739.602"/>
</g>
<!-- nid&#45;11&#45;ampout&#45;&gt;nid&#45;28 -->
<g id="edge164" class="edge"><title>nid&#45;11&#45;ampout&#45;&gt;nid&#45;28</title>
<path fill="none" stroke="gray" stroke-dasharray="5,2" d="M806.265,-992.432C866.018,-981.367 1048.93,-947.494 1127.98,-932.856"/>
<polygon fill="gray" stroke="gray" points="1128.78,-936.267 1137.97,-931.005 1127.5,-929.384 1128.78,-936.267"/>
</g>
<!-- nid&#45;17 -->
<g id="node8" class="node"><title>nid&#45;17</title>
<polygon fill="none" stroke="black" points="1582.14,-554 1561.57,-591.559 1520.43,-591.559 1499.86,-554 1520.43,-516.441 1561.57,-516.441 1582.14,-554"/>
<text text-anchor="middle" x="1541" y="-560.4" font-family="Times Roman,serif" font-size="14.00">0x17</text>
<text text-anchor="middle" x="1541" y="-541.4" font-family="Times Roman,serif" font-size="14.00">Stereo</text>
</g>
<!-- nid&#45;17&#45;&gt;nid&#45;0a&#45;in -->
<g id="edge8" class="edge"><title>nid&#45;17&#45;&gt;nid&#45;0a&#45;in</title>
<path fill="none" stroke="gray" stroke-dasharray="5,2" d="M1571.19,-574.499C1621.99,-608.81 1728.03,-679.65 1820,-736 1823.61,-738.212 1827.31,-740.453 1831.06,-742.7"/>
<polygon fill="gray" stroke="gray" points="1829.49,-745.839 1839.88,-747.943 1833.07,-739.823 1829.49,-745.839"/>
</g>
<!-- nid&#45;17&#45;&gt;nid&#45;0d&#45;in -->
<g id="edge20" class="edge"><title>nid&#45;17&#45;&gt;nid&#45;0d&#45;in</title>
<path fill="none" stroke="gray" stroke-dasharray="5,2" d="M1559.19,-591.135C1598.2,-667.827 1696.47,-846.053 1820,-960 1821.94,-961.787 1823.94,-963.539 1826,-965.256"/>
<polygon fill="gray" stroke="gray" points="1824.18,-968.274 1834.21,-971.7 1828.51,-962.77 1824.18,-968.274"/>
</g>
<!-- nid&#45;17&#45;&gt;nid&#45;0f&#45;in -->
<g id="edge30" class="edge"><title>nid&#45;17&#45;&gt;nid&#45;0f&#45;in</title>
<path fill="none" stroke="gray" stroke-dasharray="5,2" d="M1576.09,-566.042C1630.99,-584.88 1739.08,-621.973 1818.28,-649.153"/>
<polygon fill="gray" stroke="gray" points="1817.2,-652.481 1827.79,-652.416 1819.47,-645.86 1817.2,-652.481"/>
</g>
<!-- nid&#45;17&#45;&gt;nid&#45;15 -->
<g id="edge53" class="edge"><title>nid&#45;17&#45;&gt;nid&#45;15</title>
<path fill="none" stroke="gray" stroke-dasharray="5,2" d="M1565.74,-584.39C1611.95,-640.025 1716.14,-760.219 1820,-844 1831.4,-853.195 1844.36,-862.066 1856.94,-869.988"/>
<polygon fill="gray" stroke="gray" points="1855.22,-873.038 1865.57,-875.313 1858.9,-867.081 1855.22,-873.038"/>
</g>
<!-- nid&#45;1c -->
<g id="node101" class="node"><title>nid&#45;1c</title>
<polygon fill="none" stroke="black" points="1992.79,-312 1867.45,-312 1835.21,-220 1960.55,-220 1992.79,-312"/>
<text text-anchor="middle" x="1914" y="-272.4" font-family="Times Roman,serif" font-size="14.00">0x1c</text>
<text text-anchor="middle" x="1914" y="-253.4" font-family="Times Roman,serif" font-size="14.00">Stereo R/L</text>
</g>
<!-- nid&#45;17&#45;&gt;nid&#45;1c -->
<g id="edge110" class="edge"><title>nid&#45;17&#45;&gt;nid&#45;1c</title>
<path fill="none" stroke="gray" stroke-dasharray="5,2" d="M1570.27,-531.401C1631.87,-483.838 1775.85,-372.665 1856.56,-310.348"/>
<polygon fill="gray" stroke="gray" points="1858.87,-312.987 1864.65,-304.105 1854.59,-307.446 1858.87,-312.987"/>
</g>
<!-- nid&#45;1d -->
<g id="node108" class="node"><title>nid&#45;1d</title>
<polygon fill="none" stroke="black" points="1992.79,-108 1867.45,-108 1835.21,-16 1960.55,-16 1992.79,-108"/>
<text text-anchor="middle" x="1914" y="-68.4" font-family="Times Roman,serif" font-size="14.00">0x1d</text>
<text text-anchor="middle" x="1914" y="-49.4" font-family="Times Roman,serif" font-size="14.00">Stereo R/L</text>
</g>
<!-- nid&#45;17&#45;&gt;nid&#45;1d -->
<g id="edge121" class="edge"><title>nid&#45;17&#45;&gt;nid&#45;1d</title>
<path fill="none" stroke="gray" stroke-dasharray="5,2" d="M1565.19,-522.098C1627.66,-439.686 1794.99,-218.973 1872.96,-116.131"/>
<polygon fill="gray" stroke="gray" points="1875.84,-118.123 1879.1,-108.04 1870.27,-113.894 1875.84,-118.123"/>
</g>
<!-- nid&#45;0b&#45;out -->
<g id="node12" class="node"><title>nid&#45;0b&#45;out</title>
<polygon fill="none" stroke="green" points="165,-308 25,-308 25,-224 165,-224 165,-308"/>
<text text-anchor="middle" x="95" y="-291.4" font-family="Times Roman,serif" font-size="14.00">0x0b</text>
<text text-anchor="middle" x="95" y="-272.4" font-family="Times Roman,serif" font-size="14.00">[Jack] Mic at Ext Rear</text>
<text text-anchor="middle" x="95" y="-253.4" font-family="Times Roman,serif" font-size="14.00">Stereo</text>
<text text-anchor="middle" x="95" y="-234.4" font-family="Times Roman,serif" font-size="14.00">IN Detect</text>
</g>
<!-- nid&#45;1a -->
<g id="node89" class="node"><title>nid&#45;1a</title>
<polygon fill="none" stroke="black" points="496.874,-370 412.763,-370 391.126,-278 475.237,-278 496.874,-370"/>
<text text-anchor="middle" x="444" y="-330.4" font-family="Times Roman,serif" font-size="14.00">0x1a</text>
<text text-anchor="middle" x="444" y="-311.4" font-family="Times Roman,serif" font-size="14.00">Stereo</text>
</g>
<!-- nid&#45;0b&#45;out&#45;&gt;nid&#45;1a -->
<g id="edge90" class="edge"><title>nid&#45;0b&#45;out&#45;&gt;nid&#45;1a</title>
<path fill="none" stroke="#333333" d="M165.625,-277.737C231.902,-288.752 329.61,-304.99 389.901,-315.009"/>
<polygon fill="#333333" stroke="#333333" points="389.537,-318.497 399.976,-316.684 390.685,-311.592 389.537,-318.497"/>
</g>
<!-- nid&#45;1b -->
<g id="node95" class="node"><title>nid&#45;1b</title>
<polygon fill="none" stroke="black" points="496.874,-254 412.763,-254 391.126,-162 475.237,-162 496.874,-254"/>
<text text-anchor="middle" x="444" y="-214.4" font-family="Times Roman,serif" font-size="14.00">0x1b</text>
<text text-anchor="middle" x="444" y="-195.4" font-family="Times Roman,serif" font-size="14.00">Stereo</text>
</g>
<!-- nid&#45;0b&#45;out&#45;&gt;nid&#45;1b -->
<g id="edge99" class="edge"><title>nid&#45;0b&#45;out&#45;&gt;nid&#45;1b</title>
<path fill="none" stroke="#333333" d="M165.625,-254.263C233.22,-243.029 333.508,-226.363 393.453,-216.4"/>
<polygon fill="#333333" stroke="#333333" points="394.147,-219.833 403.437,-214.741 392.999,-212.928 394.147,-219.833"/>
</g>
<!-- nid&#45;0c&#45;out -->
<g id="node15" class="node"><title>nid&#45;0c&#45;out</title>
<polygon fill="none" stroke="green" points="174,-200 16,-200 16,-116 174,-116 174,-200"/>
<text text-anchor="middle" x="95" y="-183.4" font-family="Times Roman,serif" font-size="14.00">0x0c</text>
<text text-anchor="middle" x="95" y="-164.4" font-family="Times Roman,serif" font-size="14.00">[Jack] Line In at Ext Rear</text>
<text text-anchor="middle" x="95" y="-145.4" font-family="Times Roman,serif" font-size="14.00">Stereo</text>
<text text-anchor="middle" x="95" y="-126.4" font-family="Times Roman,serif" font-size="14.00">IN Detect</text>
</g>
<!-- nid&#45;0c&#45;out&#45;&gt;nid&#45;1a -->
<g id="edge92" class="edge"><title>nid&#45;0c&#45;out&#45;&gt;nid&#45;1a</title>
<path fill="none" stroke="gray" stroke-dasharray="5,2" d="M174.194,-195.668C239.061,-226.522 329.275,-269.432 387.157,-296.963"/>
<polygon fill="gray" stroke="gray" points="385.98,-300.279 396.514,-301.413 388.987,-293.957 385.98,-300.279"/>
</g>
<!-- nid&#45;0c&#45;out&#45;&gt;nid&#45;1b -->
<g id="edge101" class="edge"><title>nid&#45;0c&#45;out&#45;&gt;nid&#45;1b</title>
<path fill="none" stroke="gray" stroke-dasharray="5,2" d="M174.194,-169.346C240.217,-178.805 332.497,-192.025 390.219,-200.295"/>
<polygon fill="gray" stroke="gray" points="389.834,-203.776 400.229,-201.729 390.827,-196.846 389.834,-203.776"/>
</g>
<!-- nid&#45;0e&#45;out -->
<g id="node24" class="node"><title>nid&#45;0e&#45;out</title>
<polygon fill="none" stroke="green" points="174,-416 16,-416 16,-332 174,-332 174,-416"/>
<text text-anchor="middle" x="95" y="-399.4" font-family="Times Roman,serif" font-size="14.00">0x0e</text>
<text text-anchor="middle" x="95" y="-380.4" font-family="Times Roman,serif" font-size="14.00">[Jack] Line In at Ext Rear</text>
<text text-anchor="middle" x="95" y="-361.4" font-family="Times Roman,serif" font-size="14.00">Stereo</text>
<text text-anchor="middle" x="95" y="-342.4" font-family="Times Roman,serif" font-size="14.00">IN Detect</text>
</g>
<!-- nid&#45;0e&#45;out&#45;&gt;nid&#45;1a -->
<g id="edge94" class="edge"><title>nid&#45;0e&#45;out&#45;&gt;nid&#45;1a</title>
<path fill="none" stroke="gray" stroke-dasharray="5,2" d="M174.194,-362.654C241.355,-353.032 335.687,-339.518 393.174,-331.282"/>
<polygon fill="gray" stroke="gray" points="393.714,-334.74 403.116,-329.857 392.721,-327.811 393.714,-334.74"/>
</g>
<!-- nid&#45;0e&#45;out&#45;&gt;nid&#45;1b -->
<g id="edge103" class="edge"><title>nid&#45;0e&#45;out&#45;&gt;nid&#45;1b</title>
<path fill="none" stroke="gray" stroke-dasharray="5,2" d="M174.194,-336.332C242.776,-303.711 339.691,-257.614 396.773,-230.463"/>
<polygon fill="gray" stroke="gray" points="398.397,-233.567 405.924,-226.111 395.39,-227.245 398.397,-233.567"/>
</g>
<!-- nid&#45;10 -->
<g id="node32" class="node"><title>nid&#45;10</title>
<ellipse fill="none" stroke="blue" cx="444" cy="-818" rx="53.2379" ry="32.5269"/>
<text text-anchor="middle" x="444" y="-824.4" font-family="Times Roman,serif" font-size="14.00">0x10</text>
<text text-anchor="middle" x="444" y="-805.4" font-family="Times Roman,serif" font-size="14.00">Stereo R/L</text>
</g>
<!-- nid&#45;10&#45;&gt;nid&#45;10&#45;ampout -->
<g id="edge33" class="edge"><title>nid&#45;10&#45;&gt;nid&#45;10&#45;ampout</title>
<path fill="none" stroke="#c8c8c8" d="M497.594,-818C575.764,-818 717.277,-818 768.15,-818"/>
<polygon fill="#c8c8c8" stroke="#c8c8c8" points="768.342,-819.75 773.342,-818 768.342,-816.25 768.342,-819.75"/>
</g>
<!-- nid&#45;11 -->
<g id="node35" class="node"><title>nid&#45;11</title>
<ellipse fill="none" stroke="blue" cx="444" cy="-996" rx="53.2379" ry="32.5269"/>
<text text-anchor="middle" x="444" y="-1002.4" font-family="Times Roman,serif" font-size="14.00">0x11</text>
<text text-anchor="middle" x="444" y="-983.4" font-family="Times Roman,serif" font-size="14.00">Stereo R/L</text>
</g>
<!-- nid&#45;11&#45;&gt;nid&#45;11&#45;ampout -->
<g id="edge36" class="edge"><title>nid&#45;11&#45;&gt;nid&#45;11&#45;ampout</title>
<path fill="none" stroke="#c8c8c8" d="M497.594,-996C575.764,-996 717.277,-996 768.15,-996"/>
<polygon fill="#c8c8c8" stroke="#c8c8c8" points="768.342,-997.75 773.342,-996 768.342,-994.25 768.342,-997.75"/>
</g>
<!-- nid&#45;12 -->
<g id="node38" class="node"><title>nid&#45;12</title>
<ellipse fill="none" stroke="red" cx="2635" cy="-266" rx="36.0624" ry="32.5269"/>
<text text-anchor="middle" x="2635" y="-272.4" font-family="Times Roman,serif" font-size="14.00">0x12</text>
<text text-anchor="middle" x="2635" y="-253.4" font-family="Times Roman,serif" font-size="14.00">Stereo</text>
</g>
<!-- nid&#45;1c&#45;ampout -->
<g id="node39" class="node"><title>nid&#45;1c&#45;ampout</title>
<polygon fill="none" stroke="#c8c8c8" points="2308,-266 2267.5,-284 2267.5,-248 2308,-266"/>
</g>
<!-- nid&#45;1c&#45;ampout&#45;&gt;nid&#45;12 -->
<g id="edge39" class="edge"><title>nid&#45;1c&#45;ampout&#45;&gt;nid&#45;12</title>
<path fill="none" stroke="#333333" d="M2308.19,-266C2368.5,-266 2514.02,-266 2588.86,-266"/>
<polygon fill="#333333" stroke="#333333" points="2588.93,-269.5 2598.93,-266 2588.93,-262.5 2588.93,-269.5"/>
</g>
<!-- nid&#45;24 -->
<g id="node117" class="node"><title>nid&#45;24</title>
<polygon fill="none" stroke="black" points="2687.87,-414 2603.76,-414 2582.13,-322 2666.24,-322 2687.87,-414"/>
<text text-anchor="middle" x="2635" y="-374.4" font-family="Times Roman,serif" font-size="14.00">0x24</text>
<text text-anchor="middle" x="2635" y="-355.4" font-family="Times Roman,serif" font-size="14.00">Stereo</text>
</g>
<!-- nid&#45;1c&#45;ampout&#45;&gt;nid&#45;24 -->
<g id="edge147" class="edge"><title>nid&#45;1c&#45;ampout&#45;&gt;nid&#45;24</title>
<path fill="none" stroke="gray" stroke-dasharray="5,2" d="M2297.6,-270.783C2347.51,-285.165 2497.85,-328.482 2579.98,-352.146"/>
<polygon fill="gray" stroke="gray" points="2579.06,-355.525 2589.64,-354.931 2581,-348.799 2579.06,-355.525"/>
</g>
<!-- nid&#45;25 -->
<g id="node123" class="node"><title>nid&#45;25</title>
<polygon fill="none" stroke="black" points="2687.87,-210 2603.76,-210 2582.13,-118 2666.24,-118 2687.87,-210"/>
<text text-anchor="middle" x="2635" y="-170.4" font-family="Times Roman,serif" font-size="14.00">0x25</text>
<text text-anchor="middle" x="2635" y="-151.4" font-family="Times Roman,serif" font-size="14.00">Stereo</text>
</g>
<!-- nid&#45;1c&#45;ampout&#45;&gt;nid&#45;25 -->
<g id="edge154" class="edge"><title>nid&#45;1c&#45;ampout&#45;&gt;nid&#45;25</title>
<path fill="none" stroke="gray" stroke-dasharray="5,2" d="M2297.6,-261.217C2348.66,-246.505 2504.79,-201.518 2585.51,-178.259"/>
<polygon fill="gray" stroke="gray" points="2586.8,-181.53 2595.44,-175.398 2584.86,-174.803 2586.8,-181.53"/>
</g>
<!-- nid&#45;13 -->
<g id="node42" class="node"><title>nid&#45;13</title>
<ellipse fill="none" stroke="red" cx="2635" cy="-62" rx="36.0624" ry="32.5269"/>
<text text-anchor="middle" x="2635" y="-68.4" font-family="Times Roman,serif" font-size="14.00">0x13</text>
<text text-anchor="middle" x="2635" y="-49.4" font-family="Times Roman,serif" font-size="14.00">Stereo</text>
</g>
<!-- nid&#45;1d&#45;ampout -->
<g id="node43" class="node"><title>nid&#45;1d&#45;ampout</title>
<polygon fill="none" stroke="#c8c8c8" points="2308,-62 2267.5,-80 2267.5,-44 2308,-62"/>
</g>
<!-- nid&#45;1d&#45;ampout&#45;&gt;nid&#45;13 -->
<g id="edge42" class="edge"><title>nid&#45;1d&#45;ampout&#45;&gt;nid&#45;13</title>
<path fill="none" stroke="#333333" d="M2308.19,-62C2368.5,-62 2514.02,-62 2588.86,-62"/>
<polygon fill="#333333" stroke="#333333" points="2588.93,-65.5001 2598.93,-62 2588.93,-58.5001 2588.93,-65.5001"/>
</g>
<!-- nid&#45;1d&#45;ampout&#45;&gt;nid&#45;24 -->
<g id="edge149" class="edge"><title>nid&#45;1d&#45;ampout&#45;&gt;nid&#45;24</title>
<path fill="none" stroke="gray" stroke-dasharray="5,2" d="M2291.14,-69.6076C2305.46,-80.4406 2332.25,-101.097 2354,-120 2446.53,-200.436 2459.49,-231.901 2554,-310 2561.05,-315.825 2568.64,-321.719 2576.25,-327.403"/>
<polygon fill="gray" stroke="gray" points="2574.37,-330.362 2584.5,-333.477 2578.52,-324.727 2574.37,-330.362"/>
</g>
<!-- nid&#45;1d&#45;ampout&#45;&gt;nid&#45;25 -->
<g id="edge156" class="edge"><title>nid&#45;1d&#45;ampout&#45;&gt;nid&#45;25</title>
<path fill="none" stroke="gray" stroke-dasharray="5,2" d="M2297.6,-66.7829C2347.51,-81.165 2497.85,-124.482 2579.98,-148.146"/>
<polygon fill="gray" stroke="gray" points="2579.06,-151.525 2589.64,-150.931 2581,-144.799 2579.06,-151.525"/>
</g>
<!-- nid&#45;14&#45;in -->
<g id="node46" class="node"><title>nid&#45;14&#45;in</title>
<polygon fill="none" stroke="green" points="2708,-944 2562,-944 2562,-860 2708,-860 2708,-944"/>
<text text-anchor="middle" x="2635" y="-927.4" font-family="Times Roman,serif" font-size="14.00">0x14</text>
<text text-anchor="middle" x="2635" y="-908.4" font-family="Times Roman,serif" font-size="14.00">[N/A] Other at Ext N/A</text>
<text text-anchor="middle" x="2635" y="-889.4" font-family="Times Roman,serif" font-size="14.00">Mono</text>
<text text-anchor="middle" x="2635" y="-870.4" font-family="Times Roman,serif" font-size="14.00">OUT</text>
</g>
<!-- nid&#45;16 -->
<g id="node48" class="node"><title>nid&#45;16</title>
<polygon fill="none" stroke="black" points="2321.82,-902 2301.41,-939.559 2260.59,-939.559 2240.18,-902 2260.59,-864.441 2301.41,-864.441 2321.82,-902"/>
<text text-anchor="middle" x="2281" y="-908.4" font-family="Times Roman,serif" font-size="14.00">0x16</text>
<text text-anchor="middle" x="2281" y="-889.4" font-family="Times Roman,serif" font-size="14.00">Mono</text>
</g>
<!-- nid&#45;16&#45;&gt;nid&#45;14&#45;in -->
<g id="edge46" class="edge"><title>nid&#45;16&#45;&gt;nid&#45;14&#45;in</title>
<path fill="none" stroke="#333333" d="M2321.95,-902C2377.81,-902 2479.18,-902 2551.44,-902"/>
<polygon fill="#333333" stroke="#333333" points="2551.88,-905.5 2561.88,-902 2551.88,-898.5 2551.88,-905.5"/>
</g>
<!-- nid&#45;15&#45;&gt;nid&#45;16 -->
<g id="edge56" class="edge"><title>nid&#45;15&#45;&gt;nid&#45;16</title>
<path fill="none" stroke="#333333" d="M1956.1,-902C2023.75,-902 2156.47,-902 2229.61,-902"/>
<polygon fill="#333333" stroke="#333333" points="2229.95,-905.5 2239.95,-902 2229.95,-898.5 2229.95,-905.5"/>
</g>
<!-- nid&#45;17&#45;ampin&#45;16&#45;&gt;nid&#45;17 -->
<g id="edge59" class="edge"><title>nid&#45;17&#45;ampin&#45;16&#45;&gt;nid&#45;17</title>
<path fill="none" stroke="#c8c8c8" d="M1227.09,-593.239C1303.12,-583.735 1429.99,-567.876 1496.78,-559.527"/>
<polygon fill="#c8c8c8" stroke="#c8c8c8" points="1497.14,-561.247 1501.88,-558.89 1496.7,-557.774 1497.14,-561.247"/>
</g>
<!-- nid&#45;17&#45;ampin&#45;17&#45;&gt;nid&#45;17 -->
<g id="edge61" class="edge"><title>nid&#45;17&#45;ampin&#45;17&#45;&gt;nid&#45;17</title>
<path fill="none" stroke="#c8c8c8" d="M1203.82,-680.442C1275.74,-653.472 1428.95,-596.018 1501.43,-568.839"/>
<polygon fill="#c8c8c8" stroke="#c8c8c8" points="1502.44,-570.329 1506.51,-566.935 1501.21,-567.052 1502.44,-570.329"/>
</g>
<!-- nid&#45;17&#45;ampin&#45;39 -->
<g id="node62" class="node"><title>nid&#45;17&#45;ampin&#45;39</title>
<polygon fill="none" stroke="#c8c8c8" points="1254.1,-507 1120.45,-545.184 1120.45,-468.816 1254.1,-507"/>
<text text-anchor="middle" x="1165" y="-503.9" font-family="Times Roman,serif" font-size="14.00">2 (0x27)</text>
</g>
<!-- nid&#45;17&#45;ampin&#45;39&#45;&gt;nid&#45;17 -->
<g id="edge63" class="edge"><title>nid&#45;17&#45;ampin&#45;39&#45;&gt;nid&#45;17</title>
<path fill="none" stroke="#c8c8c8" d="M1227.09,-514.761C1303.12,-524.265 1429.99,-540.124 1496.78,-548.473"/>
<polygon fill="#c8c8c8" stroke="#c8c8c8" points="1496.7,-550.226 1501.88,-549.11 1497.14,-546.753 1496.7,-550.226"/>
</g>
<!-- nid&#45;17&#45;ampin&#45;26 -->
<g id="node64" class="node"><title>nid&#45;17&#45;ampin&#45;26</title>
<polygon fill="none" stroke="#c8c8c8" points="1252.18,-413 1121.41,-451.184 1121.41,-374.816 1252.18,-413"/>
<text text-anchor="middle" x="1165" y="-409.9" font-family="Times Roman,serif" font-size="14.00">3 (0x1a)</text>
</g>
<!-- nid&#45;17&#45;ampin&#45;26&#45;&gt;nid&#45;17 -->
<g id="edge65" class="edge"><title>nid&#45;17&#45;ampin&#45;26&#45;&gt;nid&#45;17</title>
<path fill="none" stroke="#c8c8c8" d="M1203.47,-427.427C1275.21,-454.33 1428.71,-511.89 1501.34,-539.128"/>
<polygon fill="#c8c8c8" stroke="#c8c8c8" points="1501.13,-540.918 1506.43,-541.036 1502.36,-537.641 1501.13,-540.918"/>
</g>
<!-- nid&#45;17&#45;ampin&#45;27 -->
<g id="node66" class="node"><title>nid&#45;17&#45;ampin&#45;27</title>
<polygon fill="none" stroke="#c8c8c8" points="1254.1,-319 1120.45,-357.184 1120.45,-280.816 1254.1,-319"/>
<text text-anchor="middle" x="1165" y="-315.9" font-family="Times Roman,serif" font-size="14.00">4 (0x1b)</text>
</g>
<!-- nid&#45;17&#45;ampin&#45;27&#45;&gt;nid&#45;17 -->
<g id="edge67" class="edge"><title>nid&#45;17&#45;ampin&#45;27&#45;&gt;nid&#45;17</title>
<path fill="none" stroke="#c8c8c8" d="M1197.53,-335.249C1214.56,-343.988 1235.64,-355.17 1254,-366 1347.57,-421.187 1453.48,-493.155 1506.66,-529.987"/>
<polygon fill="#c8c8c8" stroke="#c8c8c8" points="1505.91,-531.599 1511.01,-533.009 1507.9,-528.722 1505.91,-531.599"/>
</g>
<!-- nid&#45;27&#45;out -->
<g id="node70" class="node"><title>nid&#45;27&#45;out</title>
<polygon fill="none" stroke="green" points="860,-549 714,-549 714,-465 860,-465 860,-549"/>
<text text-anchor="middle" x="787" y="-532.4" font-family="Times Roman,serif" font-size="14.00">0x27</text>
<text text-anchor="middle" x="787" y="-513.4" font-family="Times Roman,serif" font-size="14.00">[N/A] Other at Ext N/A</text>
<text text-anchor="middle" x="787" y="-494.4" font-family="Times Roman,serif" font-size="14.00">Mono</text>
<text text-anchor="middle" x="787" y="-475.4" font-family="Times Roman,serif" font-size="14.00">IN</text>
</g>
<!-- nid&#45;27&#45;out&#45;&gt;nid&#45;17&#45;ampin&#45;39 -->
<g id="edge73" class="edge"><title>nid&#45;27&#45;out&#45;&gt;nid&#45;17&#45;ampin&#45;39</title>
<path fill="none" stroke="#333333" d="M860.33,-507C933.492,-507 1044.23,-507 1110.11,-507"/>
<polygon fill="#333333" stroke="#333333" points="1110.29,-510.5 1120.29,-507 1110.29,-503.5 1110.29,-510.5"/>
</g>
<!-- nid&#45;1a&#45;ampout -->
<g id="node72" class="node"><title>nid&#45;1a&#45;ampout</title>
<polygon fill="none" stroke="#0000ff" points="814,-324 773.5,-342 773.5,-306 814,-324"/>
</g>
<!-- nid&#45;1a&#45;ampout&#45;&gt;nid&#45;17&#45;ampin&#45;26 -->
<g id="edge75" class="edge"><title>nid&#45;1a&#45;ampout&#45;&gt;nid&#45;17&#45;ampin&#45;26</title>
<path fill="none" stroke="#333333" d="M804.725,-328.173C858.99,-340.95 1024.41,-379.898 1110.95,-400.273"/>
<polygon fill="#333333" stroke="#333333" points="1110.31,-403.718 1120.84,-402.603 1111.91,-396.904 1110.31,-403.718"/>
</g>
<!-- nid&#45;1a&#45;ampout&#45;&gt;nid&#45;1c -->
<g id="edge108" class="edge"><title>nid&#45;1a&#45;ampout&#45;&gt;nid&#45;1c</title>
<path fill="none" stroke="#333333" d="M803.939,-319.513C847.402,-308.258 966.587,-279.013 1068,-269 1351.87,-240.972 1691.94,-253.744 1839.55,-261.542"/>
<polygon fill="#333333" stroke="#333333" points="1839.67,-265.053 1849.85,-262.094 1840.05,-258.063 1839.67,-265.053"/>
</g>
<!-- nid&#45;1b&#45;ampout -->
<g id="node74" class="node"><title>nid&#45;1b&#45;ampout</title>
<polygon fill="none" stroke="#0000ff" points="814,-208 773.5,-226 773.5,-190 814,-208"/>
</g>
<!-- nid&#45;1b&#45;ampout&#45;&gt;nid&#45;17&#45;ampin&#45;27 -->
<g id="edge77" class="edge"><title>nid&#45;1b&#45;ampout&#45;&gt;nid&#45;17&#45;ampin&#45;27</title>
<path fill="none" stroke="#333333" d="M803.73,-212.913C856.835,-228.507 1023.22,-277.366 1110.43,-302.976"/>
<polygon fill="#333333" stroke="#333333" points="1109.57,-306.371 1120.15,-305.83 1111.54,-299.654 1109.57,-306.371"/>
</g>
<!-- nid&#45;1b&#45;ampout&#45;&gt;nid&#45;1d -->
<g id="edge119" class="edge"><title>nid&#45;1b&#45;ampout&#45;&gt;nid&#45;1d</title>
<path fill="none" stroke="#333333" d="M801.89,-202.242C873.515,-174.898 1190.29,-57.9414 1462,-21 1531.58,-11.5398 1549.95,-16.1388 1620,-21 1693.99,-26.1346 1777.71,-38.4548 1836.84,-48.2581"/>
<polygon fill="#333333" stroke="#333333" points="1836.4,-51.7342 1846.84,-49.9324 1837.56,-44.8302 1836.4,-51.7342"/>
</g>
<!-- nid&#45;18&#45;ampout -->
<g id="node77" class="node"><title>nid&#45;18&#45;ampout</title>
<polygon fill="none" stroke="#0000ff" points="471,-1071 430.5,-1089 430.5,-1053 471,-1071"/>
</g>
<!-- nid&#45;18&#45;in -->
<g id="node78" class="node"><title>nid&#45;18&#45;in</title>
<ellipse fill="none" stroke="black" cx="95" cy="-1071" rx="46.8775" ry="19.0919"/>
<text text-anchor="middle" x="95" y="-1067.9" font-family="Times Roman,serif" font-size="14.00">nid&#45;18&#45;in</text>
</g>
<!-- nid&#45;18&#45;in&#45;&gt;nid&#45;18&#45;ampout -->
<g id="edge80" class="edge"><title>nid&#45;18&#45;in&#45;&gt;nid&#45;18&#45;ampout</title>
<path fill="none" stroke="#0000ff" d="M142.795,-1071C220.946,-1071 372.659,-1071 425.397,-1071"/>
<polygon fill="#0000ff" stroke="#0000ff" points="425.474,-1072.75 430.473,-1071 425.473,-1069.25 425.474,-1072.75"/>
</g>
<!-- nid&#45;18&#45;out -->
<g id="node81" class="node"><title>nid&#45;18&#45;out</title>
<polygon fill="none" stroke="green" points="1612,-225 1470,-225 1470,-141 1612,-141 1612,-225"/>
<text text-anchor="middle" x="1541" y="-208.4" font-family="Times Roman,serif" font-size="14.00">0x18</text>
<text text-anchor="middle" x="1541" y="-189.4" font-family="Times Roman,serif" font-size="14.00">[Fixed] Mic at Int N/A</text>
<text text-anchor="middle" x="1541" y="-170.4" font-family="Times Roman,serif" font-size="14.00">Stereo</text>
<text text-anchor="middle" x="1541" y="-151.4" font-family="Times Roman,serif" font-size="14.00">IN</text>
</g>
<!-- nid&#45;18&#45;out&#45;&gt;nid&#45;1c -->
<g id="edge112" class="edge"><title>nid&#45;18&#45;out&#45;&gt;nid&#45;1c</title>
<path fill="none" stroke="gray" stroke-dasharray="5,2" d="M1612.04,-198.807C1675.97,-213.034 1769.75,-233.902 1835.8,-248.599"/>
<polygon fill="gray" stroke="gray" points="1835.22,-252.056 1845.75,-250.812 1836.74,-245.223 1835.22,-252.056"/>
</g>
<!-- nid&#45;18&#45;out&#45;&gt;nid&#45;1d -->
<g id="edge123" class="edge"><title>nid&#45;18&#45;out&#45;&gt;nid&#45;1d</title>
<path fill="none" stroke="gray" stroke-dasharray="5,2" d="M1612.04,-159.956C1679.89,-137.944 1781.37,-105.026 1847.63,-83.5318"/>
<polygon fill="gray" stroke="gray" points="1849.11,-86.7299 1857.54,-80.3149 1846.95,-80.0714 1849.11,-86.7299"/>
</g>
<!-- nid&#45;19&#45;ampout -->
<g id="node83" class="node"><title>nid&#45;19&#45;ampout</title>
<polygon fill="none" stroke="#0000ff" points="471,-1133 430.5,-1151 430.5,-1115 471,-1133"/>
</g>
<!-- nid&#45;19&#45;in -->
<g id="node84" class="node"><title>nid&#45;19&#45;in</title>
<ellipse fill="none" stroke="black" cx="95" cy="-1133" rx="46.8775" ry="19.0919"/>
<text text-anchor="middle" x="95" y="-1129.9" font-family="Times Roman,serif" font-size="14.00">nid&#45;19&#45;in</text>
</g>
<!-- nid&#45;19&#45;in&#45;&gt;nid&#45;19&#45;ampout -->
<g id="edge84" class="edge"><title>nid&#45;19&#45;in&#45;&gt;nid&#45;19&#45;ampout</title>
<path fill="none" stroke="#0000ff" d="M142.795,-1133C220.946,-1133 372.659,-1133 425.397,-1133"/>
<polygon fill="#0000ff" stroke="#0000ff" points="425.474,-1134.75 430.473,-1133 425.473,-1131.25 425.474,-1134.75"/>
</g>
<!-- nid&#45;19&#45;out -->
<g id="node87" class="node"><title>nid&#45;19&#45;out</title>
<polygon fill="none" stroke="green" points="1612,-117 1470,-117 1470,-33 1612,-33 1612,-117"/>
<text text-anchor="middle" x="1541" y="-100.4" font-family="Times Roman,serif" font-size="14.00">0x19</text>
<text text-anchor="middle" x="1541" y="-81.4" font-family="Times Roman,serif" font-size="14.00">[Fixed] Mic at Int N/A</text>
<text text-anchor="middle" x="1541" y="-62.4" font-family="Times Roman,serif" font-size="14.00">Stereo</text>
<text text-anchor="middle" x="1541" y="-43.4" font-family="Times Roman,serif" font-size="14.00">IN</text>
</g>
<!-- nid&#45;19&#45;out&#45;&gt;nid&#45;1c -->
<g id="edge114" class="edge"><title>nid&#45;19&#45;out&#45;&gt;nid&#45;1c</title>
<path fill="none" stroke="gray" stroke-dasharray="5,2" d="M1612.04,-111.375C1673.61,-142.904 1762.86,-188.608 1828.37,-222.152"/>
<polygon fill="gray" stroke="gray" points="1826.95,-225.359 1837.45,-226.802 1830.14,-219.128 1826.95,-225.359"/>
</g>
<!-- nid&#45;19&#45;out&#45;&gt;nid&#45;1d -->
<g id="edge125" class="edge"><title>nid&#45;19&#45;out&#45;&gt;nid&#45;1d</title>
<path fill="none" stroke="gray" stroke-dasharray="5,2" d="M1612.04,-72.5242C1677.85,-70.2306 1775.28,-66.8348 1841.54,-64.5255"/>
<polygon fill="gray" stroke="gray" points="1842.02,-68.0108 1851.9,-64.1645 1841.78,-61.015 1842.02,-68.0108"/>
</g>
<!-- nid&#45;1a&#45;&gt;nid&#45;1a&#45;ampout -->
<g id="edge88" class="edge"><title>nid&#45;1a&#45;&gt;nid&#45;1a&#45;ampout</title>
<path fill="none" stroke="#0000ff" d="M486.059,-324C560.945,-324 714.555,-324 768.094,-324"/>
<polygon fill="#0000ff" stroke="#0000ff" points="768.249,-325.75 773.249,-324 768.249,-322.25 768.249,-325.75"/>
</g>
<!-- nid&#45;1b&#45;&gt;nid&#45;1b&#45;ampout -->
<g id="edge97" class="edge"><title>nid&#45;1b&#45;&gt;nid&#45;1b&#45;ampout</title>
<path fill="none" stroke="#0000ff" d="M486.059,-208C560.945,-208 714.555,-208 768.094,-208"/>
<polygon fill="#0000ff" stroke="#0000ff" points="768.249,-209.75 773.249,-208 768.249,-206.25 768.249,-209.75"/>
</g>
<!-- nid&#45;1c&#45;&gt;nid&#45;1c&#45;ampout -->
<g id="edge106" class="edge"><title>nid&#45;1c&#45;&gt;nid&#45;1c&#45;ampout</title>
<path fill="none" stroke="#c8c8c8" d="M1976.67,-266C2061.98,-266 2210,-266 2262.16,-266"/>
<polygon fill="#c8c8c8" stroke="#c8c8c8" points="2262.18,-267.75 2267.18,-266 2262.18,-264.25 2262.18,-267.75"/>
</g>
<!-- nid&#45;1d&#45;&gt;nid&#45;1d&#45;ampout -->
<g id="edge117" class="edge"><title>nid&#45;1d&#45;&gt;nid&#45;1d&#45;ampout</title>
<path fill="none" stroke="#c8c8c8" d="M1976.67,-62C2061.98,-62 2210,-62 2262.16,-62"/>
<polygon fill="#c8c8c8" stroke="#c8c8c8" points="2262.18,-63.7501 2267.18,-62 2262.18,-60.2501 2262.18,-63.7501"/>
</g>
<!-- nid&#45;1e&#45;in -->
<g id="node115" class="node"><title>nid&#45;1e&#45;in</title>
<polygon fill="none" stroke="green" points="3108,-416 2924,-416 2924,-332 3108,-332 3108,-416"/>
<text text-anchor="middle" x="3016" y="-399.4" font-family="Times Roman,serif" font-size="14.00">0x1e</text>
<text text-anchor="middle" x="3016" y="-380.4" font-family="Times Roman,serif" font-size="14.00">[Jack] SPDIF Out at Ext Right</text>
<text text-anchor="middle" x="3016" y="-361.4" font-family="Times Roman,serif" font-size="14.00">Stereo Digital</text>
<text text-anchor="middle" x="3016" y="-342.4" font-family="Times Roman,serif" font-size="14.00">OUT</text>
</g>
<!-- nid&#45;24&#45;&gt;nid&#45;1e&#45;in -->
<g id="edge129" class="edge"><title>nid&#45;24&#45;&gt;nid&#45;1e&#45;in</title>
<path fill="none" stroke="#333333" d="M2677.23,-368.665C2733.78,-369.556 2835.96,-371.165 2913.36,-372.384"/>
<polygon fill="#333333" stroke="#333333" points="2913.58,-375.887 2923.63,-372.545 2913.69,-368.888 2913.58,-375.887"/>
</g>
<!-- nid&#45;1f&#45;in -->
<g id="node120" class="node"><title>nid&#45;1f&#45;in</title>
<polygon fill="none" stroke="green" points="3089,-308 2943,-308 2943,-224 3089,-224 3089,-308"/>
<text text-anchor="middle" x="3016" y="-291.4" font-family="Times Roman,serif" font-size="14.00">0x1f</text>
<text text-anchor="middle" x="3016" y="-272.4" font-family="Times Roman,serif" font-size="14.00">[N/A] Other at Ext N/A</text>
<text text-anchor="middle" x="3016" y="-253.4" font-family="Times Roman,serif" font-size="14.00">Stereo Digital</text>
<text text-anchor="middle" x="3016" y="-234.4" font-family="Times Roman,serif" font-size="14.00">OUT EAPD</text>
</g>
<!-- nid&#45;24&#45;&gt;nid&#45;1f&#45;in -->
<g id="edge133" class="edge"><title>nid&#45;24&#45;&gt;nid&#45;1f&#45;in</title>
<path fill="none" stroke="#333333" d="M2674.7,-357.373C2735.47,-341.103 2852.92,-309.659 2932.88,-288.251"/>
<polygon fill="#333333" stroke="#333333" points="2934.18,-291.529 2942.93,-285.562 2932.37,-284.767 2934.18,-291.529"/>
</g>
<!-- nid&#45;25&#45;&gt;nid&#45;1f&#45;in -->
<g id="edge135" class="edge"><title>nid&#45;25&#45;&gt;nid&#45;1f&#45;in</title>
<path fill="none" stroke="gray" stroke-dasharray="5,2" d="M2680.2,-176.101C2742.39,-192.751 2855.45,-223.018 2933.07,-243.797"/>
<polygon fill="gray" stroke="gray" points="2932.26,-247.205 2942.82,-246.41 2934.07,-240.443 2932.26,-247.205"/>
</g>
<!-- nid&#45;20&#45;in -->
<g id="node126" class="node"><title>nid&#45;20&#45;in</title>
<polygon fill="none" stroke="green" points="3089,-200 2943,-200 2943,-116 3089,-116 3089,-200"/>
<text text-anchor="middle" x="3016" y="-183.4" font-family="Times Roman,serif" font-size="14.00">0x20</text>
<text text-anchor="middle" x="3016" y="-164.4" font-family="Times Roman,serif" font-size="14.00">[N/A] Other at Ext N/A</text>
<text text-anchor="middle" x="3016" y="-145.4" font-family="Times Roman,serif" font-size="14.00">Stereo Digital</text>
<text text-anchor="middle" x="3016" y="-126.4" font-family="Times Roman,serif" font-size="14.00">OUT</text>
</g>
<!-- nid&#45;25&#45;&gt;nid&#45;20&#45;in -->
<g id="edge139" class="edge"><title>nid&#45;25&#45;&gt;nid&#45;20&#45;in</title>
<path fill="none" stroke="#333333" d="M2677.23,-163.335C2738.6,-162.368 2853.71,-160.556 2932.57,-159.314"/>
<polygon fill="#333333" stroke="#333333" points="2933.02,-162.807 2942.97,-159.15 2932.91,-155.808 2933.02,-162.807"/>
</g>
<!-- nid&#45;21 -->
<g id="node130" class="node"><title>nid&#45;21</title>
<ellipse fill="none" stroke="blue" cx="2281" cy="-368" rx="65.0538" ry="32.5269"/>
<text text-anchor="middle" x="2281" y="-374.4" font-family="Times Roman,serif" font-size="14.00">0x21</text>
<text text-anchor="middle" x="2281" y="-355.4" font-family="Times Roman,serif" font-size="14.00">Stereo Digital</text>
</g>
<!-- nid&#45;21&#45;&gt;nid&#45;24 -->
<g id="edge145" class="edge"><title>nid&#45;21&#45;&gt;nid&#45;24</title>
<path fill="none" stroke="#333333" d="M2346.34,-368C2414.47,-368 2519.9,-368 2582.72,-368"/>
<polygon fill="#333333" stroke="#333333" points="2582.8,-371.5 2592.8,-368 2582.8,-364.5 2582.8,-371.5"/>
</g>
<!-- nid&#45;22 -->
<g id="node132" class="node"><title>nid&#45;22</title>
<ellipse fill="none" stroke="blue" cx="2281" cy="-164" rx="65.0538" ry="32.5269"/>
<text text-anchor="middle" x="2281" y="-170.4" font-family="Times Roman,serif" font-size="14.00">0x22</text>
<text text-anchor="middle" x="2281" y="-151.4" font-family="Times Roman,serif" font-size="14.00">Stereo Digital</text>
</g>
<!-- nid&#45;22&#45;&gt;nid&#45;25 -->
<g id="edge152" class="edge"><title>nid&#45;22&#45;&gt;nid&#45;25</title>
<path fill="none" stroke="#333333" d="M2346.34,-164C2414.47,-164 2519.9,-164 2582.72,-164"/>
<polygon fill="#333333" stroke="#333333" points="2582.8,-167.5 2592.8,-164 2582.8,-160.5 2582.8,-167.5"/>
</g>
</g>
</svg>
